<?xml version="1.0" encoding="utf-8"?>
<!-- Generator: Adobe Illustrator 25.0.0, SVG Export Plug-In . SVG Version: 6.00 Build 0)  -->
<svg version="1.1" id="Layer_1" xmlns="http://www.w3.org/2000/svg" xmlns:xlink="http://www.w3.org/1999/xlink" x="0px" y="0px"
	 viewBox="0 0 612 379.8" style="enable-background:new 0 0 612 379.8;" xml:space="preserve">
<style type="text/css">
	.st0{fill:#FFFFFF;}
	.st1{clip-path:url(#SVGID_2_);}
	.st2{fill:#24292E;}
	.st3{font-family:'Helvetica-Bold';}
	.st4{font-size:15px;}
	.st5{clip-path:url(#SVGID_4_);}
	.st6{clip-path:url(#SVGID_6_);}
	.st7{fill:#586069;}
	.st8{font-family:'Helvetica';}
	.st9{font-size:10.5px;}
	.st10{clip-path:url(#SVGID_8_);}
	.st11{clip-path:url(#SVGID_10_);}
	.st12{clip-path:url(#SVGID_12_);}
	.st13{fill:#0366D6;}
	.st14{clip-path:url(#SVGID_14_);}
	.st15{clip-path:url(#SVGID_16_);}
	.st16{clip-path:url(#SVGID_18_);}
	.st17{clip-path:url(#SVGID_20_);}
	.st18{clip-path:url(#SVGID_22_);}
	.st19{clip-path:url(#SVGID_24_);}
	.st20{clip-path:url(#SVGID_26_);}
	.st21{clip-path:url(#SVGID_28_);}
	.st22{clip-path:url(#SVGID_30_);}
	.st23{clip-path:url(#SVGID_32_);}
	.st24{clip-path:url(#SVGID_34_);}
	.st25{clip-path:url(#SVGID_36_);}
</style>
<rect class="st0" width="612" height="379.8"/>
<g>
	<defs>
		<rect id="SVGID_1_" x="145.5" y="79" width="272" height="20"/>
	</defs>
	<clipPath id="SVGID_2_">
		<use xlink:href="#SVGID_1_"  style="overflow:visible;"/>
	</clipPath>
	<g class="st1">
		<text transform="matrix(1 0 0 1 148.13 93.24)" class="st2 st3 st4">Repository unavailable due to DMCA</text>
	</g>
</g>
<g>
	<defs>
		<rect id="SVGID_3_" x="145.5" y="101.5" width="78.5" height="20"/>
	</defs>
	<clipPath id="SVGID_4_">
		<use xlink:href="#SVGID_3_"  style="overflow:visible;"/>
	</clipPath>
	<g class="st5">
		<text transform="matrix(1 0 0 1 148.13 115.74)" class="st2 st3 st4">takedown.</text>
	</g>
</g>
<g>
	<defs>
		<rect id="SVGID_5_" x="145.5" y="126" width="295.5" height="15.5"/>
	</defs>
	<clipPath id="SVGID_6_">
		<use xlink:href="#SVGID_5_"  style="overflow:visible;"/>
	</clipPath>
	<g class="st6">
		<text transform="matrix(1 0 0 1 148.13 136.62)" class="st7 st8 st9">This repository is currently disabled due to a DMCA takedown</text>
	</g>
</g>
<g>
	<defs>
		<rect id="SVGID_7_" x="145.5" y="141.5" width="323.5" height="15.5"/>
	</defs>
	<clipPath id="SVGID_8_">
		<use xlink:href="#SVGID_7_"  style="overflow:visible;"/>
	</clipPath>
	<g class="st10">
		<text transform="matrix(1 0 0 1 148.13 152.37)" class="st7 st8 st9">notice. </text>
		<text transform="matrix(1 0 0 1 181.98 152.37)" class="st7 st8 st9">W</text>
		<text transform="matrix(1 0 0 1 191.71 152.37)" class="st7 st8 st9">e have disabled public access to the repositor</text>
		<text transform="matrix(1 0 0 1 404.18 152.37)" class="st7 st8 st9">y</text>
		<text transform="matrix(1 0 0 1 408.66 152.37)" class="st7 st8 st9">. The notice</text>
	</g>
</g>
<g>
	<defs>
		<rect id="SVGID_9_" x="145.5" y="157.5" width="51.5" height="15.5"/>
	</defs>
	<clipPath id="SVGID_10_">
		<use xlink:href="#SVGID_9_"  style="overflow:visible;"/>
	</clipPath>
	<g class="st11">
		<text transform="matrix(1 0 0 1 148.13 168.12)" class="st7 st8 st9">has been</text>
	</g>
</g>
<g>
	<defs>
		<rect id="SVGID_11_" x="191.5" y="157.5" width="75" height="15.5"/>
	</defs>
	<clipPath id="SVGID_12_">
		<use xlink:href="#SVGID_11_"  style="overflow:visible;"/>
	</clipPath>
	<g class="st12">
		<text transform="matrix(1 0 0 1 194.23 168.12)" class="st13 st8 st9">publicly posted</text>
	</g>
</g>
<g>
	<defs>
		<rect id="SVGID_13_" x="261" y="157.5" width="11" height="15.5"/>
	</defs>
	<clipPath id="SVGID_14_">
		<use xlink:href="#SVGID_13_"  style="overflow:visible;"/>
	</clipPath>
	<g class="st14">
		<text transform="matrix(1 0 0 1 263.67 168.12)" class="st7 st8 st9">.</text>
	</g>
</g>
<g>
	<defs>
		<rect id="SVGID_15_" x="145.5" y="180.5" width="321.5" height="15.5"/>
	</defs>
	<clipPath id="SVGID_16_">
		<use xlink:href="#SVGID_15_"  style="overflow:visible;"/>
	</clipPath>
	<g class="st15">
		<text transform="matrix(1 0 0 1 148.13 191.37)" class="st7 st8 st9">If you are the repository owne</text>
		<text transform="matrix(1 0 0 1 286.46 191.37)" class="st7 st8 st9">r</text>
		<text transform="matrix(1 0 0 1 289.38 191.37)" class="st7 st8 st9">, and you believe that your repository</text>
	</g>
</g>
<g>
	<defs>
		<rect id="SVGID_17_" x="145.5" y="196.5" width="309.5" height="15.5"/>
	</defs>
	<clipPath id="SVGID_18_">
		<use xlink:href="#SVGID_17_"  style="overflow:visible;"/>
	</clipPath>
	<g class="st16">
		<text transform="matrix(1 0 0 1 148.13 207.12)" class="st7 st8 st9">was disabled as a result of mistake or misidentiﬁcation, you have</text>
	</g>
</g>
<g>
	<defs>
		<rect id="SVGID_19_" x="145.5" y="212" width="316.5" height="15.5"/>
	</defs>
	<clipPath id="SVGID_20_">
		<use xlink:href="#SVGID_19_"  style="overflow:visible;"/>
	</clipPath>
	<g class="st17">
		<text transform="matrix(1 0 0 1 148.13 222.87)" class="st7 st8 st9">the right to ﬁle a counter notice and have the repository reinstated.</text>
	</g>
</g>
<g>
	<defs>
		<rect id="SVGID_21_" x="145.5" y="228" width="215" height="15.5"/>
	</defs>
	<clipPath id="SVGID_22_">
		<use xlink:href="#SVGID_21_"  style="overflow:visible;"/>
	</clipPath>
	<g class="st18">
		<text transform="matrix(1 0 0 1 148.13 238.62)" class="st7 st8 st9">Our help articles provide more details on our</text>
	</g>
</g>
<g>
	<defs>
		<rect id="SVGID_23_" x="355" y="228" width="87" height="15.5"/>
	</defs>
	<clipPath id="SVGID_24_">
		<use xlink:href="#SVGID_23_"  style="overflow:visible;"/>
	</clipPath>
	<g class="st19">
		<text transform="matrix(1 0 0 1 357.6 238.62)" class="st13 st8 st9">DMCA takedown</text>
	</g>
</g>
<g>
	<defs>
		<rect id="SVGID_25_" x="145.5" y="243.5" width="32" height="15.5"/>
	</defs>
	<clipPath id="SVGID_26_">
		<use xlink:href="#SVGID_25_"  style="overflow:visible;"/>
	</clipPath>
	<g class="st20">
		<text transform="matrix(1 0 0 1 148.13 254.37)" class="st13 st8 st9">policy</text>
	</g>
</g>
<g>
	<defs>
		<rect id="SVGID_27_" x="172" y="243.5" width="29" height="15.5"/>
	</defs>
	<clipPath id="SVGID_28_">
		<use xlink:href="#SVGID_27_"  style="overflow:visible;"/>
	</clipPath>
	<g class="st21">
		<text transform="matrix(1 0 0 1 174.98 254.37)" class="st7 st8 st9"> and </text>
	</g>
</g>
<g>
	<defs>
		<rect id="SVGID_29_" x="195.5" y="243.5" width="130.5" height="15.5"/>
	</defs>
	<clipPath id="SVGID_30_">
		<use xlink:href="#SVGID_29_"  style="overflow:visible;"/>
	</clipPath>
	<g class="st22">
		<text transform="matrix(1 0 0 1 198.31 254.37)" class="st13 st8 st9">how to ﬁle a counter notice</text>
	</g>
</g>
<g>
	<defs>
		<rect id="SVGID_31_" x="320.5" y="243.5" width="133" height="15.5"/>
	</defs>
	<clipPath id="SVGID_32_">
		<use xlink:href="#SVGID_31_"  style="overflow:visible;"/>
	</clipPath>
	<g class="st23">
		<text transform="matrix(1 0 0 1 323.17 254.37)" class="st7 st8 st9">. If you have any questions</text>
	</g>
</g>
<g>
	<defs>
		<rect id="SVGID_33_" x="145.5" y="259.5" width="318" height="15.5"/>
	</defs>
	<clipPath id="SVGID_34_">
		<use xlink:href="#SVGID_33_"  style="overflow:visible;"/>
	</clipPath>
	<g class="st24">
		<text transform="matrix(1 0 0 1 148.13 270.12)" class="st7 st8 st9">about the process or the risks in ﬁling a counter notice, we suggest</text>
	</g>
</g>
<g>
	<defs>
		<rect id="SVGID_35_" x="145.5" y="275" width="147.5" height="15.5"/>
	</defs>
	<clipPath id="SVGID_36_">
		<use xlink:href="#SVGID_35_"  style="overflow:visible;"/>
	</clipPath>
	<g class="st25">
		<text transform="matrix(1 0 0 1 148.13 285.87)" class="st7 st8 st9">that you consult with a lawye</text>
		<text transform="matrix(1 0 0 1 281.78 285.87)" class="st7 st8 st9">r</text>
		<text transform="matrix(1 0 0 1 284.71 285.87)" class="st7 st8 st9">.</text>
	</g>
</g>
</svg>
