<svg xmlns="http://www.w3.org/2000/svg" viewBox="0 0 234.7 110.76"><defs><style>.a,.ac,.ak,.bl,.e,.i,.q,.w{font-size:5.78px;}.a,.ac,.bn,.e,.i,.q,.w{font-family:Times-Roman, Times;}.b{letter-spacing:-0.02em;}.c{letter-spacing:0em;}.d{letter-spacing:-0.01em;}.e,.s{letter-spacing:-0.02em;}.f{letter-spacing:0em;}.g{letter-spacing:-0.01em;}.h{letter-spacing:-0.02em;}.i{letter-spacing:-0.02em;}.j{letter-spacing:0em;}.k{letter-spacing:-0.01em;}.l{letter-spacing:-0.01em;}.m{letter-spacing:-0.02em;}.n{letter-spacing:-0.02em;}.o{letter-spacing:-0.01em;}.p{fill-rule:evenodd;}.aa,.q{letter-spacing:-0.01em;}.r{letter-spacing:0em;}.t{letter-spacing:0em;}.u{letter-spacing:0em;}.v,.w{letter-spacing:-0.02em;}.x{letter-spacing:-0.01em;}.y{letter-spacing:-0.01em;}.z{letter-spacing:-0.02em;}.ab{letter-spacing:-0.01em;}.ac{letter-spacing:-0.01em;}.ad{letter-spacing:-0.01em;}.ae{letter-spacing:0em;}.af{letter-spacing:0em;}.ag{letter-spacing:-0.02em;}.ah{letter-spacing:-0.01em;}.ai{letter-spacing:-0.02em;}.aj{letter-spacing:-0.01em;}.ak,.ao,.bl{font-family:Times-Italic, Times;font-style:italic;}.al{letter-spacing:-0.01em;}.am{letter-spacing:-0.02em;}.an{letter-spacing:-0.04em;}.ao{font-size:5.78px;}.ap{letter-spacing:-0.01em;}.aq{letter-spacing:-0.02em;}.ar,.bl{letter-spacing:-0.02em;}.as{letter-spacing:-0.01em;}.at{letter-spacing:0em;}.au{letter-spacing:-0.04em;}.av{letter-spacing:-0.02em;}.aw{letter-spacing:0em;}.ax{letter-spacing:-0.02em;}.ay{letter-spacing:-0.02em;}.az{letter-spacing:-0.03em;}.ba{letter-spacing:-0.06em;}.bb{letter-spacing:-0.02em;}.bc{letter-spacing:-0.01em;}.bd{letter-spacing:-0.02em;}.be{letter-spacing:-0.01em;}.bf{letter-spacing:-0.02em;}.bg{letter-spacing:-0.01em;}.bh{letter-spacing:-0.02em;}.bi{letter-spacing:-0.02em;}.bj{letter-spacing:-0.01em;}.bk{letter-spacing:-0.04em;}.bm{letter-spacing:0em;}.bn{font-size:5.78px;}</style></defs><text class="a" transform="translate(23.83 37.41) scale(1.03 1)"><tspan class="b">R</tspan><tspan x="3.75" y="0">R</tspan></text><text class="a" transform="translate(71.41 37.41) scale(1.03 1)"><tspan class="c">C</tspan><tspan x="3.83" y="0">S</tspan></text><text class="a" transform="translate(118.89 37.41) scale(1.03 1)"><tspan class="d">L</tspan><tspan x="3.49" y="0">S</tspan></text><text class="e" transform="translate(164.89 37.41) scale(1.03 1)">V<tspan class="f" x="4.08" y="0">M</tspan></text><text class="a" transform="translate(214.83 37.41) scale(1.03 1)">U</text><text class="a" transform="translate(69.83 71.58) scale(1.03 1)"><tspan class="b">C</tspan><tspan class="g" x="3.75" y="0">S</tspan><tspan x="6.9" y="0">S</tspan></text><text class="a" transform="translate(116.97 71.58) scale(1.03 1)"><tspan class="d">L</tspan><tspan class="h" x="3.49" y="0">C</tspan><tspan x="7.23" y="0">S</tspan></text><text class="i" transform="translate(163.49 71.58) scale(1.03 1)">CO<tspan class="j" x="7.82" y="0">D</tspan></text><text class="a" transform="translate(26.28 71.58) scale(1.03 1)">$</text><text class="a" transform="translate(68.34 105.75) scale(1.03 1)"><tspan class="c">C</tspan><tspan class="k" x="3.83" y="0">$</tspan><tspan class="l" x="6.64" y="0">S</tspan><tspan x="9.79" y="0">S</tspan></text><text class="a" transform="translate(113.9 105.75) scale(1.03 1)"><tspan class="m">L</tspan><tspan class="c" x="3.41" y="0">C</tspan><tspan class="k" x="7.23" y="0">$</tspan><tspan class="l" x="10.04" y="0">S</tspan><tspan x="13.2" y="0">S</tspan></text><text class="a" transform="translate(155.08 106.01) scale(1.03 1)"><tspan class="d">L</tspan><tspan class="c" x="3.49" y="0">C</tspan><tspan class="n" x="7.31" y="0">ODC</tspan><tspan x="19.23" y="0">$</tspan><tspan class="l" x="22.12" y="0">S</tspan><tspan x="25.27" y="0">S</tspan></text><text class="a" transform="translate(209.84 106.01) scale(1.03 1)"><tspan class="b">R</tspan><tspan class="o" x="3.75" y="0">E</tspan><tspan class="l" x="7.23" y="0">S</tspan><tspan x="10.39" y="0">T</tspan></text><path class="p" d="M137.21,18.82l-.09-.61-.35-.62-.52-.52-.62-.53-1.75-.7-2.1-.17-2.11.17-1.66.7c-6.06,4.34,6.36,8.25,9.11,3l.09-.7" transform="translate(-9.47 -15.49)"/><path d="M137,18.91l-.08-.62H137l-.35-.61v.09l-.52-.53-.62-.52h.09l-1.75-.7-2.1-.18-2.11.18h.09l-1.66.7-.7.52h.08l-.52.53v-.09l-.26.61-.18.62v-.09l.18.7v-.09L127,20l.52.61h-.08l.7.44v-.09l1.66.7h-.09l2.11.27,2.1-.27,1.75-.7-.09.09.62-.44.52-.61.35-.53-.08.09.08-.7h.35l-.08.7v.09c-.93,2-3.47,2.57-5.52,2.63L129.67,22h-.08l-1.67-.7-.7-.43-.52-.62-.09-.09-.27-.52-.17-.7v-.09l.17-.61v-.09l.27-.61h.09l.52-.53.7-.52v-.09l1.67-.7h.08l2.11-.18,2.1.18H134l1.75.7.09.09.61.52.53.53.35.61v.09l.08.61-.35.09" transform="translate(-9.47 -15.49)"/><path d="M50.12,50.89l-.26-1.32h.08l-.78-1.22v.08L48,47.3l-1.67-1-1.93-.79h.09l-2.19-.61-2.54-.35-2.63-.18-2.63.18h.09l-2.45.35-2.28.61L28,46.33l-1.57,1h.08l-1.22,1.13v-.08l-.79,1.22-.26,1.32V50.8l.26,1.31V52l.79,1.22,1.22,1.14h-.08l1.57,1v-.09l1.93.79,2.28.61,2.45.44h-.09l2.63.09,2.63-.09,2.54-.44,2.19-.61h-.09l1.93-.79v.09l1.67-1,1.14-1.14L49.94,52l-.08.08.26-1.31.35.09-.26,1.31-.79,1.23v.09l-1.14,1.14h-.09l-1.66,1-1.93.79L42.41,57l-2.54.44h-.09l-2.63.09c-3.4.17-9.87-1.12-12.18-4v-.09l-.78-1.23H24.1l-.27-1.31V50.8l.27-1.31.09-.09L25,48.17,26.2,47l1.58-1V46l1.92-.79h.09l2.28-.61,2.45-.35,2.63-.18,2.63.18h.09l2.54.35,2.19.61,1.93.79v.09l1.66,1h.09l1.14,1.14.79,1.23v.09l.26,1.31-.35.09" transform="translate(-9.47 -15.49)"/><path d="M97.43,50.89l-.26-1.32h.09l-.79-1.22v.08L95.33,47.3l-1.67-1-1.92-.79h.08l-2.19-.61-2.54-.35-2.63-.18-2.62.18h.08l-2.45.35-2.28.61-1.92.79-1.58,1h.09l-1.23,1.13v-.08l-.79,1.22-.26,1.32V50.8l.26,1.31V52l.79,1.22,1.23,1.14h-.09l1.58,1v-.09l1.92.79,2.28.61,2.45.44h-.08l2.62.09,2.63-.09,2.54-.44,2.19-.61h-.08l1.92-.79v.09l1.67-1,1.14-1.14L97.26,52l-.09.08.26-1.31.35.09-.26,1.31-.79,1.23v.09l-1.14,1.14H95.5l-1.66,1-1.93.79L89.72,57l-2.54.44h-.09l-2.63.09c-3.4.17-9.86-1.12-12.17-4v-.09L71.5,52.2h-.09l-.26-1.31V50.8l.26-1.31.09-.09.79-1.23L73.51,47l1.58-1V46L77,45.19h.08l2.28-.61,2.46-.35,2.62-.18,2.63.18h.09l2.54.35,2.19.61,1.93.79v.09l1.66,1h.09l1.14,1.14.79,1.23v.09l.26,1.31-.35.09" transform="translate(-9.47 -15.49)"/><path d="M144.74,50.89l-.26-1.32h.09l-.79-1.22v.08l-1.14-1.13-1.66-1-1.93-.79h.09L137,44.93l-2.54-.35-2.63-.18-2.63.18h.09l-2.46.35-2.27.61-1.93.79-1.58,1h.09l-1.23,1.13v-.08l-.79,1.22-.26,1.32V50.8l.26,1.31V52l.79,1.22,1.23,1.14H121l1.58,1v-.09l1.93.79,2.27.61,2.46.44h-.09l2.63.09,2.63-.09,2.54-.44,2.19-.61h-.09l1.93-.79v.09l1.66-1,1.14-1.14.79-1.22-.09.08.26-1.31.35.09-.26,1.31L144,53.43v.09l-1.14,1.14h-.08l-1.67,1-1.93.79L137,57l-2.54.44h-.08l-2.63.09c-3.41.17-9.87-1.12-12.18-4v-.09l-.79-1.23h-.09l-.26-1.31V50.8l.26-1.31.09-.09.79-1.23L120.83,47l1.57-1V46l1.93-.79h.09l2.28-.61,2.45-.35,2.63-.18,2.63.18h.08l2.54.35,2.19.61,1.93.79v.09l1.67,1h.08L144,48.17l.79,1.23v.09l.26,1.31-.35.09" transform="translate(-9.47 -15.49)"/><path d="M192.06,50.89l-.27-1.32h.09l-.79-1.22v.08L190,47.3l-1.66-1-1.93-.79h.09l-2.19-.61-2.54-.35-2.63-.18-2.63.18h.09l-2.45.35-2.28.61-1.93.79-1.58,1h.09l-1.23,1.13v-.08l-.78,1.22-.27,1.32V50.8l.27,1.31V52l.78,1.22,1.23,1.14h-.09l1.58,1v-.09l1.93.79,2.28.61,2.45.44h-.09l2.63.09,2.63-.09,2.54-.44,2.19-.61h-.09l1.93-.79v.09l1.66-1,1.14-1.14.79-1.22-.09.08.27-1.31.35.09-.27,1.31-.78,1.23v.09l-1.14,1.14h-.09l-1.67,1-1.92.79-2.19.61-2.54.44h-.09l-2.63.09c-3.4.17-9.87-1.12-12.18-4v-.09l-.79-1.23H166l-.26-1.31V50.8l.26-1.31.09-.09.79-1.23L168.14,47l1.57-1V46l1.93-.79h.09l2.28-.61,2.45-.35,2.63-.18,2.63.18h.09l2.54.35,2.19.61,1.92.79v.09l1.67,1h.09l1.14,1.14.78,1.23v.09l.27,1.31-.35.09" transform="translate(-9.47 -15.49)"/><path d="M239.37,50.89l-.26-1.32h.08l-.78-1.22v.08l-1.14-1.13-1.67-1-1.93-.79h.09l-2.19-.61L229,44.58l-2.63-.18-2.63.18h.09l-2.45.35-2.28.61-1.93.79-1.57,1h.08l-1.22,1.13v-.08l-.79,1.22-.27,1.32V50.8l.27,1.31V52l.79,1.22,1.22,1.14h-.08l1.57,1v-.09l1.93.79,2.28.61,2.45.44h-.09l2.63.09,2.63-.09,2.54-.44,2.19-.61h-.09l1.93-.79v.09l1.67-1,1.14-1.14.78-1.22-.08.08.26-1.31.35.09-.26,1.31-.79,1.23v.09l-1.14,1.14h-.09l-1.66,1-1.93.79-2.19.61-2.54.44H229l-2.63.09c-3.4.17-9.87-1.12-12.18-4v-.09l-.79-1.23h-.08l-.27-1.31V50.8l.27-1.31.08-.09.79-1.23L215.45,47l1.58-1V46l1.92-.79H219l2.28-.61,2.45-.35,2.63-.18,2.63.18h.09l2.54.35,2.19.61,1.93.79v.09l1.66,1h.09l1.14,1.14.79,1.23v.09l.26,1.31-.35.09" transform="translate(-9.47 -15.49)"/><path d="M97.43,85.06l-.26-1.32h.09l-.79-1.22v.08l-1.14-1.13-1.67-1-1.92-.79h.08l-2.19-.61-2.54-.35-2.63-.18-2.62.18h.08l-2.45.35-2.28.61-1.92.79-1.58,1h.09L72.55,82.6v-.08l-.79,1.22-.26,1.32V85l.26,1.31V86.2l.79,1.22,1.23,1.14h-.09l1.58,1v-.09l1.92.79,2.28.61,2.45.44h-.08l2.62.09,2.63-.09,2.54-.44,2.19-.61h-.08l1.92-.79v.09l1.67-1,1.14-1.14.79-1.22-.09.08L97.43,85l.35.09-.26,1.31-.79,1.23v.09l-1.14,1.14H95.5l-1.66,1-1.93.79-2.19.61-2.54.44h-.09l-2.63.09c-3.4.17-9.86-1.12-12.17-4V87.6l-.79-1.23h-.09l-.26-1.31V85l.26-1.31.09-.09.79-1.23,1.22-1.14,1.58-1v-.09L77,79.36h.08l2.28-.61,2.46-.35,2.62-.18,2.63.18h.09l2.54.35,2.19.61,1.93.79v.09l1.66,1h.09l1.14,1.14.79,1.23v.09L97.78,85l-.35.09" transform="translate(-9.47 -15.49)"/><path d="M144.74,85.06l-.26-1.32h.09l-.79-1.22v.08l-1.14-1.13-1.66-1-1.93-.79h.09L137,79.1l-2.54-.35-2.63-.18-2.63.18h.09l-2.46.35-2.27.61-1.93.79-1.58,1h.09l-1.23,1.13v-.08l-.79,1.22-.26,1.32V85l.26,1.31V86.2l.79,1.22,1.23,1.14H121l1.58,1v-.09l1.93.79,2.27.61,2.46.44h-.09l2.63.09,2.63-.09,2.54-.44,2.19-.61h-.09l1.93-.79v.09l1.66-1,1.14-1.14.79-1.22-.09.08.26-1.31.35.09-.26,1.31L144,87.6v.09l-1.14,1.14h-.08l-1.67,1-1.93.79-2.19.61-2.54.44h-.08l-2.63.09c-3.41.17-9.87-1.12-12.18-4V87.6l-.79-1.23h-.09l-.26-1.31V85l.26-1.31.09-.09.79-1.23,1.23-1.14,1.57-1v-.09l1.93-.79h.09l2.28-.61,2.45-.35,2.63-.18,2.63.18h.08l2.54.35,2.19.61,1.93.79v.09l1.67,1h.08L144,82.34l.79,1.23v.09l.26,1.31-.35.09" transform="translate(-9.47 -15.49)"/><path d="M192.06,85.06l-.27-1.32h.09l-.79-1.22v.08L190,81.47l-1.66-1-1.93-.79h.09l-2.19-.61-2.54-.35-2.63-.18-2.63.18h.09l-2.45.35-2.28.61-1.93.79-1.58,1h.09l-1.23,1.13v-.08l-.78,1.22-.27,1.32V85l.27,1.31V86.2l.78,1.22,1.23,1.14h-.09l1.58,1v-.09l1.93.79,2.28.61,2.45.44h-.09l2.63.09,2.63-.09,2.54-.44,2.19-.61h-.09l1.93-.79v.09l1.66-1,1.14-1.14.79-1.22-.09.08.27-1.31.35.09-.27,1.31-.78,1.23v.09l-1.14,1.14h-.09l-1.67,1-1.92.79-2.19.61-2.54.44h-.09l-2.63.09c-3.4.17-9.87-1.12-12.18-4V87.6l-.79-1.23H166l-.26-1.31V85l.26-1.31.09-.09.79-1.23,1.23-1.14,1.57-1v-.09l1.93-.79h.09l2.28-.61,2.45-.35,2.63-.18,2.63.18h.09l2.54.35,2.19.61,1.92.79v.09l1.67,1h.09l1.14,1.14.78,1.23v.09l.27,1.31-.35.09" transform="translate(-9.47 -15.49)"/><path d="M50.12,85.06l-.26-1.32h.08l-.78-1.22v.08L48,81.47l-1.67-1-1.93-.79h.09l-2.19-.61-2.54-.35-2.63-.18-2.63.18h.09l-2.45.35-2.28.61L28,80.5l-1.57,1h.08L25.24,82.6v-.08l-.79,1.22-.26,1.32V85l.26,1.31V86.2l.79,1.22,1.22,1.14h-.08l1.57,1v-.09l1.93.79,2.28.61,2.45.44h-.09l2.63.09,2.63-.09,2.54-.44,2.19-.61h-.09l1.93-.79v.09l1.67-1,1.14-1.14.78-1.22-.08.08L50.12,85l.35.09-.26,1.31-.79,1.23v.09l-1.14,1.14h-.09l-1.66,1-1.93.79-2.19.61-2.54.44h-.09l-2.63.09c-3.4.17-9.87-1.12-12.18-4V87.6l-.78-1.23H24.1l-.27-1.31V85l.27-1.31.09-.09L25,82.34,26.2,81.2l1.58-1v-.09l1.92-.79h.09l2.28-.61,2.45-.35,2.63-.18,2.63.18h.09l2.54.35,2.19.61,1.93.79v.09l1.66,1h.09l1.14,1.14.79,1.23v.09L50.47,85l-.35.09" transform="translate(-9.47 -15.49)"/><path d="M97.43,119.23l-.26-1.32h.09l-.79-1.22v.08l-1.14-1.13-1.67-1-1.92-.79h.08l-2.19-.61-2.54-.35-2.63-.18-2.62.18h.08l-2.45.35-2.28.61-1.92.79-1.58,1h.09l-1.23,1.13v-.08l-.79,1.22-.26,1.32v-.09l.26,1.31v-.08l.79,1.22,1.23,1.14h-.09l1.58,1v-.09l1.92.79,2.28.61,2.45.44h-.08l2.62.09,2.63-.09,2.54-.44,2.19-.61h-.08l1.92-.79v.09l1.67-1,1.14-1.14.79-1.22-.09.08.26-1.31.35.09-.26,1.31-.79,1.23v.09L95.59,123H95.5l-1.66,1-1.93.79-2.19.61-2.54.44h-.09l-2.63.09c-3.4.17-9.86-1.12-12.17-4v-.09l-.79-1.23h-.09l-.26-1.31v-.09l.26-1.31.09-.09.79-1.23,1.22-1.14,1.58-1v-.09l1.93-.79h.08l2.28-.61,2.46-.35,2.62-.18,2.63.18h.09l2.54.35,2.19.61,1.93.79v.09l1.66,1h.09l1.14,1.14.79,1.23v.09l.26,1.31-.35.09" transform="translate(-9.47 -15.49)"/><path d="M144.74,119.23l-.26-1.32h.09l-.79-1.22v.08l-1.14-1.13-1.66-1-1.93-.79h.09l-2.19-.61-2.54-.35-2.63-.18-2.63.18h.09l-2.46.35-2.27.61-1.93.79-1.58,1h.09l-1.23,1.13v-.08l-.79,1.22-.26,1.32v-.09l.26,1.31v-.08l.79,1.22,1.23,1.14H121l1.58,1v-.09l1.93.79,2.27.61,2.46.44h-.09l2.63.09,2.63-.09L137,125l2.19-.61h-.09l1.93-.79v.09l1.66-1,1.14-1.14.79-1.22-.09.08.26-1.31.35.09-.26,1.31-.79,1.23v.09L142.9,123h-.08l-1.67,1-1.93.79-2.19.61-2.54.44h-.08l-2.63.09c-3.41.17-9.87-1.12-12.18-4v-.09l-.79-1.23h-.09l-.26-1.31v-.09l.26-1.31.09-.09.79-1.23,1.23-1.14,1.57-1v-.09l1.93-.79h.09l2.28-.61,2.45-.35,2.63-.18,2.63.18h.08l2.54.35,2.19.61,1.93.79v.09l1.67,1h.08l1.14,1.14.79,1.23v.09l.26,1.31-.35.09" transform="translate(-9.47 -15.49)"/><path d="M197.75,119.4l-.09-.61-.35-.7h.09l-.44-.61v.08l-.61-.61-1.75-1-2.28-1.05h.09l-2.81-.79-3.15-.61-3.59-.35-3.77-.18-3.77.18-3.5.35h.09l-3.25.61-2.71.79-2.37,1.05-1.66,1H162l-.7.61v-.08l-.43.61-.27.7-.08.61v-.08l.08.7.27.7v-.09l.43.61.7.62h-.08l1.66,1v-.09l2.37,1,2.71.88,3.25.61h-.09l3.5.35,3.77.09,3.77-.09,3.59-.35,3.15-.61,2.81-.88h-.09l2.28-1v.09l1.75-1,.61-.62.44-.61h-.09l.35-.7V120l.09-.7h.35l-.09.7v.08c-1.23,3.65-8.41,4.92-11.47,5.52h-.09l-3.59.35c-6.9.28-16.15.16-21.82-4.46v-.09l-.44-.61h-.08l-.27-.71V120l-.09-.7.09-.62.27-.7.08-.09.44-.61.7-.61,1.67-1v-.09l2.36-1h.09l2.72-.79,3.24-.61,3.5-.36,3.77-.17,3.77.17,3.59.36h.09l3.15.61,2.8.79,2.28,1v.09l1.76,1h.08l.62.61.43.61.35.7v.09l.09.62-.35.08" transform="translate(-9.47 -15.49)"/><path d="M239.37,119.4l-.26-1.31h.08l-.78-1.23V117l-1.14-1-1.67-1.05-1.93-.79h.09l-2.19-.61L229,113.1l-2.63-.18-2.63.18h.09l-2.45.35-2.28.61-1.93.79-1.57,1.05h.08l-1.22,1v-.09l-.79,1.23-.27,1.31v-.08l.27,1.4v-.09l.79,1.23,1.22,1h-.08l1.57,1v-.09l1.93.88,2.28.61,2.45.35h-.09l2.63.09,2.63-.09,2.54-.35,2.19-.61h-.09l1.93-.88v.09l1.67-1,1.14-1,.78-1.23-.08.09.26-1.4.35.08-.26,1.41-.79,1.22v.09l-1.14,1h-.09l-1.66,1-1.93.88-2.19.61-2.54.35H229l-2.63.09c-4.33,0-9-.8-12.18-3.94V122l-.79-1.22h-.08l-.27-1.41a4.78,4.78,0,0,1,2.37-3.76l1.58-1.06v-.08l1.92-.79H219l2.28-.61,2.45-.36,2.63-.17,2.63.17h.09l2.54.36,2.19.61,1.93.79v.08l1.66,1.06h.09l1.14,1,.79,1.22V118l.26,1.32-.35.08" transform="translate(-9.47 -15.49)"/><polyline points="127.57 3.33 127.57 3.42 127.92 3.33 127.57 3.33"/><polyline points="31.89 27.86 31.72 27.51 31.1 27.69 31.28 28.04 31.89 27.86"/><polyline points="31.36 27.6 32.24 28.83 31.63 28.83 29 28.74 27.77 28.74 28.82 28.04 31.02 26.72 31.54 26.46 31.54 27.07 31.36 27.42 29.18 28.74 28.82 28.04 29 28.04 31.63 28.13 31.63 28.83 31.28 28.65 30.84 28.04 31.36 27.6"/><polyline points="31.54 27.07 31.54 27.86 30.84 28.04 30.84 27.07 31.54 27.07"/><polyline class="p" points="31.19 27.86 31.63 28.48 29 28.39 31.19 27.07 31.19 27.86"/><polyline points="122.4 3.5 122.31 3.15 31.8 27.51 31.89 27.86 122.4 3.5"/><polyline points="78.85 26.9 78.68 26.55 78.06 26.9 78.24 27.25 78.85 26.9"/><polyline points="78.33 26.81 78.94 27.34 79.47 27.77 78.85 27.95 76.22 28.48 75 28.74 75.87 27.86 77.8 26.02 78.24 25.58 78.33 26.2 78.33 26.55 76.4 28.39 75.87 27.86 76.05 27.77 78.68 27.25 78.85 27.95 78.5 27.86 77.89 27.34 78.33 26.81"/><polyline points="78.33 26.2 78.42 26.99 77.89 27.34 77.71 27.16 77.8 27.07 77.71 26.29 78.33 26.2"/><polyline class="p" points="78.15 27.07 78.77 27.6 76.14 28.13 78.06 26.29 78.15 27.07"/><polyline points="122.4 3.5 122.22 3.15 78.68 26.55 78.85 26.9 122.4 3.5"/><rect x="122.13" y="24.53" width="0.35" height="0.61"/><polyline points="122.14 24.88 123.54 24.36 123.36 24.97 122.66 27.51 122.31 28.83 121.96 27.51 121.26 24.97 121.08 24.36 121.7 24.62 121.96 24.8 122.66 27.34 121.96 27.51 121.96 27.34 122.66 24.8 123.36 24.97 123.1 25.23 122.4 25.5 122.14 24.88"/><polyline points="121.7 24.62 122.4 24.88 122.4 25.5 122.22 25.58 122.14 25.5 121.43 25.23 121.7 24.62"/><polyline class="p" points="122.31 25.15 123.01 24.88 122.31 27.42 121.61 24.88 122.31 25.15"/><rect x="122.13" y="3.33" width="0.35" height="21.2"/><polyline points="166.03 26.55 165.85 26.9 166.38 27.25 166.56 26.9 166.03 26.55"/><polyline points="166.12 27.07 166.21 26.29 166.38 25.58 166.82 26.02 168.75 27.86 169.53 28.74 168.4 28.48 165.85 27.95 165.24 27.77 165.68 27.34 166.03 27.25 168.57 27.77 168.4 28.48 168.22 28.39 166.29 26.55 166.82 26.02 166.91 26.37 166.82 27.16 166.12 27.07"/><polyline points="165.68 27.34 166.21 26.81 166.82 27.16 166.82 27.25 166.21 27.86 165.68 27.34"/><polyline class="p" points="166.47 27.07 166.56 26.29 168.48 28.13 165.94 27.6 166.47 27.07"/><polyline points="122.4 3.15 122.22 3.5 165.85 26.9 166.03 26.55 122.4 3.15"/><polyline points="212.99 27.51 212.82 27.86 213.43 28.04 213.61 27.69 212.99 27.51"/><polyline points="213.25 27.95 213.17 27.16 213.08 26.46 213.6 26.72 215.88 28.04 216.94 28.74 215.71 28.74 213.08 28.83 212.47 28.83 212.82 28.3 213.08 28.13 215.71 28.04 215.71 28.74 215.53 28.74 213.25 27.42 213.6 26.72 213.78 27.07 213.87 27.86 213.25 27.95"/><polyline points="212.82 28.3 213.25 27.69 213.87 27.86 213.87 27.95 213.78 28.13 213.34 28.74 212.82 28.3"/><polyline class="p" points="213.52 27.86 213.43 27.07 215.71 28.39 213.08 28.48 213.52 27.86"/><polyline points="122.4 3.15 122.31 3.5 212.91 27.86 212.99 27.51 122.4 3.15"/><rect x="27.51" y="58.7" width="0.35" height="0.61"/><polyline points="27.51 59.05 28.91 58.53 28.74 59.14 28.04 61.68 27.68 63 27.34 61.68 26.63 59.14 26.46 58.53 27.07 58.79 27.34 58.97 28.04 61.51 27.34 61.68 27.34 61.51 28.04 58.97 28.74 59.14 28.47 59.4 27.77 59.67 27.51 59.05"/><polyline points="27.07 58.79 27.77 59.05 27.77 59.67 27.6 59.75 27.51 59.67 26.81 59.4 27.07 58.79"/><polyline class="p" points="27.68 59.32 28.39 59.05 27.68 61.59 26.98 59.05 27.68 59.32"/><rect x="27.51" y="41.88" width="0.35" height="16.82"/><rect x="74.82" y="58.7" width="0.35" height="0.61"/><polyline points="74.82 59.05 76.22 58.53 76.05 59.14 75.35 61.68 75 63 74.65 61.68 73.95 59.14 73.77 58.53 74.38 58.79 74.65 58.97 75.35 61.51 74.65 61.68 74.65 61.51 75.35 58.97 76.05 59.14 75.79 59.4 75.08 59.67 74.82 59.05"/><polyline points="74.38 58.79 75.08 59.05 75.08 59.67 74.91 59.75 74.82 59.67 74.12 59.4 74.38 58.79"/><polyline class="p" points="75 59.32 75.7 59.05 75 61.59 74.3 59.05 75 59.32"/><rect x="74.82" y="41.88" width="0.35" height="16.82"/><rect x="122.13" y="58.7" width="0.35" height="0.61"/><polyline points="122.14 59.05 123.54 58.53 123.36 59.14 122.66 61.68 122.31 63 121.96 61.68 121.26 59.14 121.08 58.53 121.7 58.79 121.96 58.97 122.66 61.51 121.96 61.68 121.96 61.51 122.66 58.97 123.36 59.14 123.1 59.4 122.4 59.67 122.14 59.05"/><polyline points="121.7 58.79 122.4 59.05 122.4 59.67 122.22 59.75 122.14 59.67 121.43 59.4 121.7 58.79"/><polyline class="p" points="122.31 59.32 123.01 59.05 122.31 61.59 121.61 59.05 122.31 59.32"/><rect x="122.13" y="41.88" width="0.35" height="16.82"/><polyline points="112.32 61.16 112.15 61.51 112.67 61.86 112.85 61.51 112.32 61.16"/><polyline points="112.41 61.59 112.94 60.02 113.37 60.72 114.86 62.91 115.65 63.96 114.34 63.43 111.97 62.47 111.45 62.21 111.88 61.86 112.32 61.77 114.69 62.73 114.34 63.43 114.25 63.35 112.76 61.16 113.37 60.72 113.37 61.07 113.11 61.86 112.41 61.59"/><polyline points="111.88 61.86 112.5 61.42 113.11 61.86 113.02 61.86 113.02 61.94 112.41 62.38 111.88 61.86"/><polyline class="p" points="112.76 61.68 113.02 60.89 114.51 63.08 112.15 62.12 112.76 61.68"/><polyline points="84.37 39.87 84.2 40.13 112.15 61.51 112.32 61.24 84.37 39.87"/><polyline points="156.57 63.08 156.39 63.43 156.92 63.7 157.09 63.35 156.57 63.08"/><polyline points="156.66 63.43 156.74 62.65 156.83 62.03 157.27 62.47 159.28 64.05 160.25 64.75 159.02 64.66 156.39 64.4 155.78 64.31 156.31 63.87 156.57 63.7 159.2 63.96 159.02 64.66 158.93 64.57 156.92 63 157.27 62.47 157.44 62.82 157.36 63.61 156.66 63.43"/><polyline points="156.31 63.87 156.83 63.35 157.36 63.61 157.36 63.78 157.27 63.78 156.74 64.31 156.31 63.87"/><polyline class="p" points="157.01 63.52 157.09 62.73 159.11 64.31 156.48 64.05 157.01 63.52"/><polyline points="88.23 35.13 88.05 35.48 156.39 63.43 156.57 63.08 88.23 35.13"/><rect x="169.45" y="58.7" width="0.35" height="0.61"/><polyline points="169.45 59.05 170.85 58.53 170.67 59.14 169.97 61.68 169.62 63 169.27 61.68 168.57 59.14 168.4 58.53 169.01 58.79 169.27 58.97 169.97 61.51 169.27 61.68 169.27 61.51 169.97 58.97 170.67 59.14 170.41 59.4 169.71 59.67 169.45 59.05"/><polyline points="169.01 58.79 169.71 59.05 169.71 59.67 169.53 59.75 169.45 59.67 168.75 59.4 169.01 58.79"/><polyline class="p" points="169.62 59.32 170.32 59.05 169.62 61.59 168.92 59.05 169.62 59.32"/><rect x="169.45" y="41.88" width="0.35" height="16.82"/><rect x="216.76" y="93.05" width="0.35" height="0.7"/><polyline points="216.76 93.49 218.16 92.96 216.94 97.25 215.71 92.96 216.32 93.22 216.58 93.4 217.28 95.85 216.58 96.03 216.58 95.85 217.28 93.4 217.99 93.57 217.72 93.84 217.02 94.1 216.76 93.49"/><polyline points="216.32 93.22 217.02 93.49 217.02 94.1 216.85 94.19 216.76 94.1 216.06 93.84 216.32 93.22"/><polyline class="p" points="216.94 93.75 217.64 93.49 216.94 95.94 216.23 93.49 216.94 93.75"/><rect x="216.76" y="41.88" width="0.35" height="51.17"/><rect x="169.45" y="93.05" width="0.35" height="0.7"/><polyline points="169.45 93.49 170.85 92.96 169.62 97.25 168.4 92.96 169.01 93.22 169.27 93.4 169.97 95.85 169.27 96.03 169.27 95.85 169.97 93.4 170.67 93.57 170.41 93.84 169.71 94.1 169.45 93.49"/><polyline points="169.01 93.22 169.71 93.49 169.71 94.1 169.53 94.19 169.45 94.1 168.75 93.84 169.01 93.22"/><polyline class="p" points="169.62 93.75 170.32 93.49 169.62 95.94 168.92 93.49 169.62 93.75"/><rect x="169.45" y="76.05" width="0.35" height="17"/><rect x="122.13" y="92.87" width="0.35" height="0.61"/><polyline points="122.14 93.22 123.54 92.7 123.36 93.31 122.66 95.85 122.31 97.17 121.96 95.85 121.26 93.31 121.08 92.7 121.7 92.96 121.96 93.14 122.66 95.68 121.96 95.85 121.96 95.68 122.66 93.14 123.36 93.31 123.1 93.57 122.4 93.84 122.14 93.22"/><polyline points="121.7 92.96 122.4 93.22 122.4 93.84 122.22 93.92 122.14 93.84 121.43 93.57 121.7 92.96"/><polyline class="p" points="122.31 93.49 123.01 93.22 122.31 95.76 121.61 93.22 122.31 93.49"/><rect x="122.13" y="76.05" width="0.35" height="16.82"/><rect x="74.82" y="92.87" width="0.35" height="0.61"/><polyline points="74.82 93.22 76.22 92.7 76.05 93.31 75.35 95.85 75 97.17 74.65 95.85 73.95 93.31 73.77 92.7 74.38 92.96 74.65 93.14 75.35 95.68 74.65 95.85 74.65 95.68 75.35 93.14 76.05 93.31 75.79 93.57 75.08 93.84 74.82 93.22"/><polyline points="74.38 92.96 75.08 93.22 75.08 93.84 74.91 93.92 74.82 93.84 74.12 93.57 74.38 92.96"/><polyline class="p" points="75 93.49 75.7 93.22 75 95.76 74.3 93.22 75 93.49"/><rect x="74.82" y="76.05" width="0.35" height="16.82"/><polyline points="66.06 95.5 65.89 95.85 66.5 96.2 66.67 95.85 66.06 95.5"/><polyline points="66.24 96.03 66.32 95.24 66.41 94.54 66.94 94.97 68.86 96.81 69.74 97.69 68.51 97.43 65.89 96.9 65.27 96.81 65.8 96.38 66.06 96.2 68.69 96.73 68.51 97.43 68.34 97.34 66.41 95.5 66.94 94.97 67.03 95.33 66.94 96.11 66.24 96.03"/><polyline points="65.8 96.38 66.41 95.85 66.94 96.11 66.94 96.29 66.85 96.38 66.24 96.9 65.8 96.38"/><polyline class="p" points="66.59 96.03 66.67 95.24 68.6 97.08 65.97 96.55 66.59 96.03"/><polyline points="27.77 75.88 27.6 76.23 65.89 95.85 66.06 95.5 27.77 75.88"/><rect x="146.67" y="103.65" width="0.61" height="0.35"/><polyline points="147.02 104 146.75 103.3 146.4 102.6 147.1 102.77 149.65 103.47 150.87 103.83 149.65 104.17 147.1 104.88 146.4 105.05 146.67 104.44 146.93 104.17 149.47 103.47 149.65 104.17 149.47 104.17 146.93 103.47 147.1 102.77 147.37 103.04 147.63 103.74 147.02 104"/><polyline points="146.67 104.44 146.93 103.74 147.63 103.74 147.63 104 147.37 104.7 146.67 104.44"/><polyline class="p" points="147.28 103.83 147.02 103.12 149.56 103.83 147.02 104.53 147.28 103.83"/><polyline points="135.45 103.47 135.45 103.83 146.67 104 146.67 103.65 135.45 103.47"/><rect x="199.59" y="103.65" width="0.61" height="0.35"/><polyline points="199.94 104 199.41 102.6 200.03 102.77 202.57 103.47 203.71 103.83 202.57 104.17 200.03 104.96 199.41 105.14 199.59 104.53 199.85 104.26 202.39 103.47 202.57 104.17 202.39 104.17 199.85 103.47 200.03 102.77 200.29 103.04 200.55 103.74 199.94 104"/><polyline points="199.59 104.53 199.85 103.74 200.55 103.74 200.55 104 200.29 104.79 199.59 104.53"/><polyline class="p" points="200.2 103.83 199.94 103.12 202.48 103.83 199.94 104.61 200.2 103.83"/><rect x="188.46" y="103.65" width="11.13" height="0.35"/><rect x="104.96" y="103.47" width="0.61" height="0.35"/><polyline points="105.31 103.83 104.79 102.42 105.4 102.6 107.94 103.3 109.25 103.65 107.94 104 105.4 104.7 104.79 104.88 105.05 104.26 105.22 104 107.77 103.3 107.94 104 107.77 104 105.22 103.3 105.4 102.6 105.66 102.86 105.93 103.56 105.31 103.83"/><polyline points="105.05 104.26 105.31 103.56 105.93 103.56 106.01 103.74 105.93 103.83 105.66 104.53 105.05 104.26"/><polyline class="p" points="105.58 103.65 105.31 102.95 107.85 103.65 105.31 104.35 105.58 103.65"/><rect x="88.14" y="103.47" width="16.82" height="0.35"/><text class="q" transform="translate(34.78 18.22) scale(1.03 1)">r<tspan class="r" x="1.87" y="0">e</tspan><tspan class="s" x="4.43" y="0">pl</tspan><tspan class="t" x="8.74" y="0">i</tspan><tspan class="u" x="10.35" y="0">c</tspan><tspan class="v" x="12.91" y="0">a</tspan><tspan class="t" x="15.38" y="0">t</tspan><tspan class="v" x="17" y="0">e</tspan><tspan class="j" x="19.47" y="0">d</tspan></text><text class="w" transform="translate(0 54.23) scale(1.03 1)">o<tspan class="j" x="2.8" y="0">n</tspan><tspan class="x" x="5.69" y="0">-</tspan><tspan class="k" x="7.56" y="0">d</tspan><tspan class="u" x="10.37" y="0">e</tspan><tspan class="y" x="12.93" y="0">m</tspan><tspan x="17.35" y="0">a</tspan><tspan class="j" x="19.83" y="0">nd</tspan></text><text class="a" transform="translate(81.83 28.38) scale(1.03 1)"><tspan class="z">s</tspan><tspan class="u" x="2.13" y="0">e</tspan><tspan class="k" x="4.68" y="0">p</tspan><tspan class="r" x="7.49" y="0">a</tspan><tspan class="aa" x="10.05" y="0">r</tspan><tspan class="u" x="11.92" y="0">a</tspan><tspan class="ab" x="14.48" y="0">t</tspan><tspan class="u" x="16.01" y="0">e</tspan><tspan x="18.56" y="0">d</tspan></text><text class="ac" transform="translate(124.41 8.59) rotate(90) scale(1.03 1)">l<tspan class="u" x="1.54" y="0">a</tspan><tspan class="ad" x="4.09" y="0">y</tspan><tspan class="u" x="6.91" y="0">e</tspan><tspan x="9.47" y="0">r</tspan><tspan class="r" x="11.33" y="0">e</tspan><tspan class="j" x="13.88" y="0">d</tspan></text><text class="a" transform="translate(141.06 55.2) scale(1.03 1)"><tspan class="y">mo</tspan><tspan x="7.24" y="0">b</tspan><tspan class="ab" x="10.13" y="0">i</tspan><tspan class="t" x="11.66" y="0">l</tspan><tspan class="j" x="13.27" y="0">e</tspan></text><text class="a" transform="translate(193.63 21.11) scale(1.03 1)">u<tspan class="k" x="2.89" y="0">n</tspan><tspan class="y" x="5.7" y="0">i</tspan><tspan class="ae" x="7.23" y="0">f</tspan><tspan class="ab" x="9.19" y="0">orm</tspan><tspan class="f" x="18.28" y="0"> </tspan><tspan class="y" x="19.72" y="0">in</tspan><tspan class="af" x="24.07" y="0">t</tspan><tspan class="n" x="25.68" y="0">e</tspan><tspan class="ae" x="28.15" y="0">r</tspan><tspan class="ag" x="30.11" y="0">f</tspan><tspan class="r" x="31.89" y="0">a</tspan><tspan class="n" x="34.45" y="0">c</tspan><tspan x="36.92" y="0">e</tspan></text><text class="a" transform="translate(54.32 54.23) scale(1.03 1)"><tspan class="ah">s</tspan><tspan class="t" x="2.22" y="0">t</tspan><tspan class="ai" x="3.83" y="0">a</tspan><tspan class="t" x="6.3" y="0">t</tspan><tspan class="n" x="7.91" y="0">e</tspan><tspan class="t" x="10.38" y="0">l</tspan><tspan class="n" x="11.99" y="0">e</tspan><tspan class="aj" x="14.46" y="0">s</tspan><tspan x="16.67" y="0">s</tspan></text><text class="ak" transform="translate(104.87 87.18) scale(1.05 1)"><tspan class="al">s</tspan><tspan class="am" x="2.18" y="0">ha</tspan><tspan class="an" x="7.71" y="0">r</tspan><tspan class="am" x="9.72" y="0">e</tspan><tspan x="12.16" y="0">d</tspan></text><text class="ao" transform="matrix(0.83, 0.64, -0.61, 0.79, 90.07, 42.44)">intermediate</text><text class="ao" transform="matrix(0.83, 0.64, -0.61, 0.79, 87.88, 49.01)">processing</text><text class="ak" transform="translate(35.92 98.13) scale(1.05 1)"><tspan class="ap">c</tspan><tspan class="aq" x="2.51" y="0">a</tspan><tspan class="ar" x="5.28" y="0">che</tspan><tspan class="as" x="12.93" y="0">a</tspan><tspan class="am" x="15.78" y="0">b</tspan><tspan class="at" x="18.54" y="0">l</tspan><tspan x="20.14" y="0">e</tspan></text><text class="ak" transform="translate(144.56 87.26) scale(1.05 1)"><tspan class="au">e</tspan><tspan class="ap" x="2.35" y="0">x</tspan><tspan class="av" x="4.86" y="0">t</tspan><tspan class="ap" x="6.37" y="0">e</tspan><tspan class="aq" x="8.88" y="0">n</tspan><tspan class="al" x="11.65" y="0">s</tspan><tspan class="aw" x="13.84" y="0">i</tspan><tspan class="ax" x="15.43" y="0">b</tspan><tspan class="aw" x="18.2" y="0">l</tspan><tspan x="19.8" y="0">e</tspan></text><text class="ak" transform="translate(219.39 55.46) scale(1.05 1)"><tspan class="ay">s</tspan><tspan class="aw" x="2.11" y="0">i</tspan><tspan class="az" x="3.7" y="0">mp</tspan><tspan class="at" x="10.48" y="0">l</tspan><tspan x="12.07" y="0">e</tspan></text><text class="ak" transform="translate(195.29 87.09) scale(1.05 1)"><tspan class="ba">r</tspan><tspan class="ap" x="1.93" y="0">e</tspan><tspan class="bb" x="4.45" y="0">u</tspan><tspan class="al" x="7.22" y="0">s</tspan><tspan class="bb" x="9.4" y="0">a</tspan><tspan class="bc" x="12.18" y="0">b</tspan><tspan class="bd" x="15.03" y="0">l</tspan><tspan x="16.52" y="0">e</tspan></text><text class="ak" transform="translate(89.1 100.58) scale(1.05 1)"><tspan class="be">s</tspan><tspan class="bf" x="2.2" y="0">c</tspan><tspan class="bg" x="4.64" y="0">a</tspan><tspan class="bh" x="7.48" y="0">l</tspan><tspan class="bg" x="8.99" y="0">a</tspan><tspan class="ax" x="11.84" y="0">b</tspan><tspan class="av" x="14.61" y="0">l</tspan><tspan x="16.11" y="0">e</tspan></text><text class="ak" transform="translate(55.19 87.26) scale(1.05 1)"><tspan class="ba">r</tspan><tspan class="ap" x="1.93" y="0">e</tspan><tspan class="bi" x="4.45" y="0">l</tspan><tspan class="aw" x="5.95" y="0">i</tspan><tspan class="bi" x="7.54" y="0">a</tspan><tspan class="as" x="10.33" y="0">b</tspan><tspan class="bi" x="13.18" y="0">l</tspan><tspan x="14.69" y="0">e</tspan></text><text class="ak" transform="translate(136.24 101.81) scale(1.05 1)"><tspan class="bj">m</tspan><tspan class="ax" x="4.11" y="0">u</tspan><tspan class="av" x="6.88" y="0">l</tspan><tspan class="aw" x="8.39" y="0">t</tspan><tspan class="av" x="9.99" y="0">i</tspan><tspan x="11.49" y="0">-</tspan></text><text class="ak" transform="translate(138.6 108.38) scale(1.05 1)"><tspan class="as">o</tspan><tspan class="ba" x="2.85" y="0">r</tspan><tspan class="bk" x="4.78" y="0">g</tspan><tspan x="7.47" y="0">.</tspan></text><text class="bl" transform="translate(219.38 61.94) scale(1.05 1)">v<tspan class="aw" x="2.44" y="0">i</tspan><tspan class="al" x="4.03" y="0">s</tspan><tspan class="av" x="6.22" y="0">i</tspan><tspan class="am" x="7.72" y="0">b</tspan><tspan class="aw" x="10.49" y="0">l</tspan><tspan class="bm" x="12.08" y="0">e</tspan></text><text class="bn" transform="matrix(0.89, 0.48, -0.47, 0.88, 132.16, 13.64)">programmable</text></svg>